<?xml version="1.0" standalone="no"?>
<!DOCTYPE svg PUBLIC "-//W3C//DTD SVG 20010904//EN"
 "http://www.w3.org/TR/2001/REC-SVG-20010904/DTD/svg10.dtd">
<svg version="1.0" xmlns="http://www.w3.org/2000/svg"
 width="1043.000000pt" height="791.000000pt" viewBox="0 0 1043.000000 791.000000"
 preserveAspectRatio="xMidYMid meet">

<g transform="translate(0.000000,791.000000) scale(0.100000,-0.100000)"
fill="#000000" stroke="none">
<path d="M4211 7290 c-303 -64 -513 -297 -546 -605 -13 -125 31 -296 105 -410
189 -290 566 -388 873 -228 154 81 293 260 333 429 20 87 20 240 -1 319 -74
288 -325 490 -620 501 -55 2 -120 -1 -144 -6z"/>
<path d="M5881 7290 c-263 -56 -459 -238 -527 -490 -23 -87 -23 -244 -1 -330
32 -120 83 -207 177 -301 135 -136 285 -199 470 -199 182 0 334 64 466 195
133 132 194 280 194 470 0 183 -60 332 -183 458 -130 132 -273 197 -452 203
-55 2 -120 -1 -144 -6z"/>
<path d="M4970 5676 c-452 -66 -836 -330 -1066 -733 -24 -43 -44 -81 -44 -85
0 -5 587 -8 1305 -8 718 0 1305 3 1305 6 0 19 -93 176 -146 247 -217 289 -532
488 -883 558 -129 25 -349 32 -471 15z"/>
<path d="M2800 4672 c-493 -218 -1011 -448 -1153 -511 -293 -129 -393 -183
-523 -282 -235 -178 -380 -402 -439 -684 -24 -111 -25 -332 -2 -448 46 -231
155 -435 322 -602 212 -213 475 -330 770 -342 149 -6 266 6 391 43 311 90 569
320 724 647 36 76 142 400 420 1282 204 649 379 1206 390 1238 13 39 15 57 7
56 -7 0 -415 -179 -907 -397z"/>
<path d="M6615 5059 c2 -8 173 -552 380 -1209 207 -657 385 -1219 395 -1247
62 -168 179 -353 300 -474 148 -147 311 -241 519 -297 87 -23 114 -26 281 -26
157 0 198 3 271 21 462 116 798 470 885 931 21 114 21 310 0 425 -58 308 -240
568 -531 760 -49 32 -115 72 -147 88 -65 33 -2314 1029 -2341 1036 -12 4 -16
1 -12 -8z"/>
<path d="M3720 3800 l0 -390 1445 0 1445 0 0 390 0 390 -1445 0 -1445 0 0
-390z"/>
<path d="M3720 2355 l0 -385 1433 -2 c787 -2 1438 -1 1445 1 9 2 12 88 12 387
l0 384 -1445 0 -1445 0 0 -385z"/>
<path d="M3860 1292 c0 -18 114 -200 174 -277 481 -616 1374 -730 2003 -256
94 71 231 211 297 304 50 70 136 215 136 229 0 5 -587 8 -1305 8 -718 0 -1305
-4 -1305 -8z"/>
</g>
</svg>
